<?xml version="1.0" encoding="UTF-8" standalone="no"?>
<!DOCTYPE svg PUBLIC "-//W3C//DTD SVG 1.1//EN" "http://www.w3.org/Graphics/SVG/1.1/DTD/svg11.dtd">
<svg width="100%" height="100%" viewBox="0 0 1000 1000" version="1.1" xmlns="http://www.w3.org/2000/svg" xmlns:xlink="http://www.w3.org/1999/xlink" xml:space="preserve" xmlns:serif="http://www.serif.com/" style="fill-rule:evenodd;clip-rule:evenodd;stroke-linecap:round;stroke-linejoin:round;stroke-miterlimit:1.5;">
    <g>
        <g transform="matrix(0.944044,0,0,0.944044,-148.229318,15.643377)">
            <g>
                <g transform="matrix(0.470621,-0.045547,0.082474,0.852173,153.76099,93.454011)">
                    <path d="M344.396,608.986C345.242,608.807 283.189,651.783 186.083,589.172C179.581,584.979 173.484,579.638 166.406,571.952C162.915,568.162 159.92,564.116 157.366,559.858C134.336,521.467 144.984,465.066 153.063,423.72C158.174,397.562 170.544,365.731 192.063,342.487C212.044,320.904 233.337,303.007 259.729,290.32C276.286,282.361 312.376,268.922 340.302,263.019C343.156,262.416 351.606,260.29 351.606,260.29C351.606,260.29 368.241,256.436 372.62,255.988C375.851,255.657 390.249,251.621 393.496,251.548C396.726,251.474 393.496,251.548 393.496,251.548C393.496,251.548 395.879,251.365 413.554,248.403C435.582,244.712 474.13,240.182 490.396,240.32C501.298,240.412 529.912,243.255 529.912,243.255C529.912,243.255 550.974,247.168 556.361,249.057C559.918,250.304 529.912,243.255 529.912,243.255" style="fill:none;stroke:rgb(18,19,88);stroke-width:13.4px;"/>
                </g>
                <g transform="matrix(1.059273,0,0,1.059273,-36.478529,-49.761109)">
                    <ellipse cx="446.196" cy="560.138" rx="114.667" ry="114.667" style="fill:rgb(18,19,88);"/>
                </g>
                <g transform="matrix(0.995074,0,0,1.124316,-0.471953,-72.739578)">
                    <ellipse cx="472.862" cy="440.138" rx="88" ry="76" style="fill:rgb(18,19,88);"/>
                </g>
                <g transform="matrix(1.059273,0,0,1.059273,-36.478529,-49.761109)">
                    <ellipse cx="469.529" cy="422.804" rx="8.667" ry="6.667" style="fill:rgb(55,68,255);"/>
                </g>
                <g transform="matrix(1.248666,-0.298307,0.28878,1.208785,-237.645787,43.742448)">
                    <path d="M450.862,316.138L478.196,376.138L423.529,376.138L450.862,316.138Z" style="fill:rgb(18,19,88);"/>
                </g>
                <g transform="matrix(1.087249,0.682675,-0.660871,1.052523,281.254945,-323.271843)">
                    <path d="M450.862,316.138L478.196,376.138L423.529,376.138L450.862,316.138Z" style="fill:rgb(18,19,88);"/>
                </g>
                <g transform="matrix(1.078583,0,0,1.095802,-45.712861,-58.275666)">
                    <ellipse cx="462.196" cy="418.847" rx="16" ry="16" style="fill:rgb(4,1,0);"/>
                </g>
                <g transform="matrix(1.059273,0,0,1.059273,28.843269,-32.504471)">
                    <ellipse cx="462.196" cy="418.847" rx="16" ry="16" style="fill:rgb(4,1,0);"/>
                </g>
                <g transform="matrix(1.059273,0,0,1.059273,-31.268449,-41.004457)">
                    <ellipse cx="464.61" cy="422.804" rx="7.667" ry="6.667" style="fill:rgb(250,250,250);"/>
                </g>
                <g transform="matrix(0.99019,0,0,1.059273,64.91421,-28.575657)">
                    <ellipse cx="464.61" cy="422.804" rx="7.667" ry="6.667" style="fill:rgb(250,250,250);"/>
                </g>
                <g transform="matrix(0.977791,0,0,1.113673,212.990997,-56.48457)">
                    <ellipse cx="312.381" cy="419.919" rx="17.333" ry="15.218" style="fill:none;stroke:rgb(4,1,0);stroke-width:2.53px;"/>
                </g>
                <g transform="matrix(0.995616,0,0,1.113673,141.791922,-66.955585)">
                    <ellipse cx="312.381" cy="419.919" rx="17.333" ry="15.218" style="fill:none;stroke:rgb(4,1,0);stroke-width:2.51px;"/>
                </g>
                <g transform="matrix(-0.790314,-0.012595,0.00911,-0.571645,722.429418,685.22106)">
                    <path d="M320.866,451.34L291.855,451.34C290.384,449.286 289.611,446.956 289.611,444.584C289.611,437.126 297.116,431.071 306.361,431.071C315.605,431.071 323.111,437.126 323.111,444.584C323.111,446.956 322.337,449.286 320.866,451.34Z" style="fill:rgb(4,1,0);"/>
                </g>
                <g transform="matrix(0.593652,0,0,0.470788,406.190508,244.169843)">
                    <ellipse cx="154.361" cy="438.271" rx="6.75" ry="7.2" style="fill:rgb(4,1,0);"/>
                </g>
            </g>
        </g>
        <g transform="matrix(0.878955,0,0,0.878955,-22.944559,92.942566)">
            <g transform="matrix(197.405354,0,0,197.405354,1088.142043,616.998736)">
            </g>
            <text x="452.069px" y="616.999px" style="font-family:'TimesNewRomanPS-ItalicMT', 'Times New Roman', serif;font-style:italic;font-size:197.405px;fill:rgb(4,1,0);">ADOPT</text>
        </g>
    </g>
</svg>
